<?xml version="1.0" standalone="no"?>
<!DOCTYPE svg PUBLIC "-//W3C//DTD SVG 20010904//EN"
 "http://www.w3.org/TR/2001/REC-SVG-20010904/DTD/svg10.dtd">
<svg version="1.0" xmlns="http://www.w3.org/2000/svg"
 width="123.000000pt" height="162.000000pt" viewBox="0 0 123.000000 162.000000"
 preserveAspectRatio="xMidYMid meet">

<g transform="translate(0.000000,162.000000) scale(0.100000,-0.100000)"
fill="#000000" stroke="none">
<path d="M106 1451 c-6 -8 18 -42 134 -196 36 -47 82 -109 104 -138 21 -29 46
-56 56 -62 10 -5 38 -39 62 -75 l43 -65 1 -98 c1 -63 -3 -101 -11 -107 -6 -5
-90 -11 -186 -12 l-174 -3 -3 -71 c-2 -51 1 -74 11 -82 9 -7 76 -13 187 -14
l173 -3 -2 -200 c-1 -110 1 -208 4 -217 6 -14 19 -18 64 -18 95 0 94 -3 88
206 -2 98 -1 189 4 202 8 22 11 22 183 22 99 0 177 4 181 9 3 6 6 37 8 71 3
84 -10 93 -123 88 -100 -6 -237 12 -249 30 -4 8 -6 57 -3 110 4 95 5 98 45
151 23 29 56 65 75 79 19 15 61 63 94 107 61 82 92 122 152 189 49 56 64 85
46 96 -14 9 -162 11 -192 3 -9 -2 -34 -27 -55 -56 -20 -29 -48 -63 -61 -77
-23 -25 -43 -52 -121 -159 -24 -34 -50 -61 -57 -61 -16 0 -54 35 -54 50 0 12
-118 178 -134 188 -6 4 -19 18 -27 32 -9 14 -30 40 -47 58 -30 32 -31 32 -120
32 -50 0 -93 -4 -96 -9z"/>
</g>
</svg>
